<?xml version="1.0" standalone="no"?><svg xmlns="http://www.w3.org/2000/svg" viewBox="0 0 1440 320"><path fill="#6ce9a6" fill-opacity="1" d="M0,96L30,117.3C60,139,120,181,180,192C240,203,300,181,360,181.3C420,181,480,203,540,186.7C600,171,660,117,720,106.7C780,96,840,128,900,160C960,192,1020,224,1080,234.7C1140,245,1200,235,1260,202.7C1320,171,1380,117,1410,90.7L1440,64L1440,320L1410,320C1380,320,1320,320,1260,320C1200,320,1140,320,1080,320C1020,320,960,320,900,320C840,320,780,320,720,320C660,320,600,320,540,320C480,320,420,320,360,320C300,320,240,320,180,320C120,320,60,320,30,320L0,320Z"></path></svg>